<svg width="90" height="57" viewBox="0 0 90 57" fill="none" xmlns="http://www.w3.org/2000/svg">
<circle cx="28.5" cy="28.5" r="28" fill="#E9C32E" stroke="white"/>
<circle cx="61.5" cy="28.5" r="28" fill="#E9C32E" stroke="white"/>
<mask id="path-3-inside-1_222_10" fill="white">
<path fill-rule="evenodd" clip-rule="evenodd" d="M45 51.4814C52.2625 46.316 57 37.8316 57 28.2407C57 18.6498 52.2625 10.1654 45 5.00001C37.7375 10.1654 33 18.6498 33 28.2407C33 37.8316 37.7375 46.316 45 51.4814Z"/>
</mask>
<path fill-rule="evenodd" clip-rule="evenodd" d="M45 51.4814C52.2625 46.316 57 37.8316 57 28.2407C57 18.6498 52.2625 10.1654 45 5.00001C37.7375 10.1654 33 18.6498 33 28.2407C33 37.8316 37.7375 46.316 45 51.4814Z" fill="#E9C32E"/>
<path d="M45 51.4814L44.4204 52.2963L45 52.7085L45.5796 52.2963L45 51.4814ZM45 5.00001L45.5796 4.1851L45 3.77287L44.4204 4.1851L45 5.00001ZM56 28.2407C56 37.4943 51.4305 45.6806 44.4204 50.6665L45.5796 52.2963C53.0945 46.9513 58 38.1689 58 28.2407H56ZM44.4204 5.81491C51.4305 10.8008 56 18.9871 56 28.2407H58C58 18.3125 53.0945 9.53006 45.5796 4.1851L44.4204 5.81491ZM34 28.2407C34 18.9871 38.5695 10.8008 45.5796 5.81491L44.4204 4.1851C36.9055 9.53006 32 18.3125 32 28.2407H34ZM45.5796 50.6665C38.5695 45.6806 34 37.4943 34 28.2407H32C32 38.1689 36.9055 46.9513 44.4204 52.2963L45.5796 50.6665Z" fill="white" mask="url(#path-3-inside-1_222_10)"/>
</svg>
